<?xml version="1.0" standalone="no"?>
<!DOCTYPE svg PUBLIC "-//W3C//DTD SVG 20010904//EN"
 "http://www.w3.org/TR/2001/REC-SVG-20010904/DTD/svg10.dtd">
<svg version="1.0" xmlns="http://www.w3.org/2000/svg"
 width="437.000000pt" height="437.000000pt" viewBox="0 0 437.000000 437.000000"
 preserveAspectRatio="xMidYMid meet">
<metadata>
Created by potrace 1.11, written by Peter Selinger 2001-2013
</metadata>
<g transform="translate(0.000000,437.000000) scale(0.100000,-0.100000)"
fill="#000000" stroke="none">
<path d="M1981 4118 c-24 -4 -51 -14 -60 -22 -27 -24 -110 -46 -190 -51 -49
-3 -90 -12 -116 -25 -21 -11 -55 -20 -75 -20 -43 -1 -69 -15 -104 -57 -25 -30
-30 -32 -76 -26 -34 4 -50 2 -50 -6 0 -6 -8 -11 -19 -11 -10 0 -24 -7 -31 -15
-9 -10 -17 -12 -23 -6 -6 6 -28 -6 -62 -32 -29 -23 -76 -58 -105 -77 -29 -19
-60 -42 -69 -50 -89 -79 -103 -93 -88 -87 23 9 21 -6 -3 -28 -20 -18 -21 -18
-14 1 4 11 -14 -2 -43 -30 -28 -27 -53 -60 -56 -75 -3 -14 -11 -44 -17 -66
-21 -69 -24 -143 -6 -160 8 -9 12 -23 9 -32 -4 -11 -3 -14 5 -9 7 4 12 2 12
-3 0 -6 -9 -11 -20 -11 -24 0 -26 -15 -5 -27 28 -16 26 -93 -5 -220 -37 -147
-56 -270 -46 -307 4 -15 22 -42 40 -59 36 -35 65 -112 48 -129 -11 -11 3 -53
25 -76 7 -7 13 -28 13 -45 0 -75 48 -248 94 -335 12 -23 17 -51 14 -85 -4 -74
12 -177 27 -177 7 0 16 -7 19 -16 4 -9 10 -14 14 -10 8 9 10 45 15 388 4 231
6 269 21 283 9 9 14 21 11 26 -4 5 3 9 13 9 11 0 23 7 26 15 4 12 10 13 23 7
10 -6 51 -8 91 -7 39 2 72 -1 72 -5 0 -5 8 -6 19 -3 12 3 20 -2 24 -16 3 -14
0 -21 -9 -21 -28 0 -123 -41 -148 -65 -28 -26 -46 -64 -46 -96 0 -32 20 -18
49 36 29 55 91 95 144 95 42 0 29 -21 -24 -39 -53 -17 -169 -127 -169 -160 0
-27 19 -29 178 -18 66 5 82 3 82 -8 0 -8 -4 -17 -10 -20 -35 -22 45 -31 91
-11 9 4 28 8 42 10 35 4 59 25 52 47 -4 13 3 20 30 29 34 11 35 13 35 65 0 40
4 56 16 63 15 8 15 11 -5 31 l-21 21 22 0 c20 0 20 1 4 19 -16 18 -16 20 2 32
12 10 18 25 18 49 -1 29 -5 35 -23 35 -12 0 -25 4 -29 8 -4 4 8 7 26 7 40 0
37 6 -7 13 -18 3 -34 0 -35 -5 -2 -6 -13 -8 -26 -4 -12 4 -20 12 -17 16 7 11
-65 45 -114 55 -23 5 -31 4 -27 -4 4 -6 -4 -5 -18 3 -14 7 -38 12 -53 10 -62
-6 -108 -17 -113 -25 -3 -4 -38 -10 -78 -12 -64 -4 -76 -8 -98 -32 l-26 -28 5
54 c6 72 21 126 52 186 13 28 26 61 27 74 2 13 24 45 49 70 35 36 57 49 95 57
41 9 52 8 67 -6 11 -10 32 -15 57 -14 22 2 40 -1 40 -6 0 -14 77 -26 143 -23
33 1 64 -3 72 -9 8 -7 20 -8 27 -4 7 4 37 8 67 9 33 0 56 5 59 13 3 9 7 9 17
-1 50 -44 63 -49 40 -13 -15 23 -15 25 7 32 22 7 47 11 76 13 7 1 11 5 8 9 -2
4 28 7 67 5 92 -4 97 -5 97 -15 0 -13 54 -9 69 5 11 10 13 9 8 -5 -5 -14 -1
-16 22 -12 16 4 32 1 35 -5 4 -6 12 -9 17 -6 5 4 9 0 9 -7 0 -9 3 -9 10 2 8
13 11 13 19 1 5 -7 15 -11 22 -9 8 3 21 -5 31 -16 10 -12 17 -16 18 -8 0 6 5
12 10 12 12 0 53 -40 43 -41 -5 0 3 -5 17 -10 14 -6 20 -13 14 -17 -6 -4 -13
-15 -17 -24 -6 -18 -82 -34 -117 -25 -11 3 -20 1 -20 -4 0 -5 -8 -9 -17 -9 -9
0 -24 -7 -32 -15 -9 -8 -34 -15 -54 -17 -21 -1 -41 -6 -43 -10 -3 -4 -16 -5
-30 -2 -14 4 -24 2 -24 -5 0 -6 -8 -11 -17 -11 -9 0 -27 -10 -40 -22 -19 -18
-28 -20 -41 -12 -18 11 -42 -3 -42 -25 0 -5 -7 -11 -15 -15 -8 -3 -15 -13 -15
-22 0 -10 -5 -14 -16 -10 -8 3 -12 2 -9 -4 3 -6 0 -10 -7 -10 -19 0 -45 -33
-40 -49 3 -8 -3 -18 -12 -23 -13 -7 -13 -12 -3 -22 6 -8 15 -12 20 -9 4 2 7
-4 7 -15 0 -10 9 -27 20 -37 21 -19 53 -93 50 -116 -6 -40 1 -90 11 -83 7 4 7
-1 -1 -15 -13 -25 1 -51 28 -51 8 0 12 -3 9 -7 -13 -12 48 -43 86 -43 42 0 47
-9 16 -28 l-21 -14 21 -14 c11 -8 21 -21 21 -27 0 -7 -4 -6 -10 3 -5 8 -10 10
-10 4 0 -18 12 -24 26 -13 16 13 7 39 -14 39 -15 0 -15 1 0 16 11 11 23 14 35
9 10 -4 29 -9 41 -11 13 -1 30 -11 37 -21 12 -16 16 -16 36 -4 13 7 43 13 67
13 36 -1 43 2 38 14 -3 9 -6 18 -6 20 0 3 -4 2 -10 -1 -5 -3 -8 0 -5 7 3 7 17
14 32 15 15 0 29 6 31 12 2 6 7 9 12 6 4 -2 18 4 30 15 12 11 27 17 31 14 5
-3 14 -2 20 2 8 4 7 9 -2 15 -11 7 -10 9 3 9 9 0 23 9 32 21 10 15 20 19 38
14 13 -3 18 -3 12 2 -9 6 -8 11 2 21 13 12 18 8 15 -11 -1 -5 4 -5 10 -1 6 3
15 1 20 -7 6 -11 11 -10 27 4 10 9 26 17 35 17 9 0 18 4 22 9 3 5 18 12 34 16
15 3 42 20 59 36 28 27 30 33 17 46 -17 17 -19 39 -5 48 11 7 -59 75 -77 75
-7 0 -13 7 -13 15 0 9 -9 15 -25 15 -14 0 -25 5 -25 11 0 5 -4 8 -9 4 -5 -3
-12 -1 -16 4 -3 6 8 17 24 26 17 8 32 11 35 6 4 -5 0 -12 -6 -14 -7 -3 2 -3
20 0 28 5 34 2 39 -16 4 -17 8 -19 20 -10 8 7 29 13 47 15 18 1 42 7 53 13 11
5 23 8 26 5 3 -3 3 3 0 15 -3 11 -29 44 -59 73 -29 28 -51 55 -48 60 3 4 -6 9
-20 9 -14 1 -29 2 -33 3 -17 4 -80 38 -103 56 -25 20 -25 20 -2 20 12 0 22 -5
22 -11 0 -6 9 -8 20 -4 16 5 20 2 20 -14 0 -12 4 -21 10 -21 5 0 9 3 9 8 -6
34 16 44 26 12 4 -14 15 -20 35 -20 19 0 33 -7 40 -20 6 -11 15 -20 21 -20 6
0 7 5 4 10 -3 6 1 10 9 10 10 0 13 -6 9 -17 -5 -13 -2 -15 15 -11 13 4 23 0
26 -8 3 -8 12 -14 21 -14 8 0 15 -9 15 -20 0 -11 7 -20 15 -20 9 0 15 -9 15
-24 0 -13 5 -26 11 -28 6 -2 12 -19 13 -38 4 -50 4 -50 21 -44 11 5 13 2 9
-10 -3 -9 -3 -33 1 -54 4 -20 10 -31 12 -24 3 6 9 12 15 12 6 0 8 -7 5 -15 -7
-16 10 -54 36 -80 10 -9 21 -31 24 -47 3 -16 8 -26 11 -24 7 8 45 -72 61 -129
7 -27 15 -73 17 -101 4 -78 32 -182 57 -217 12 -18 27 -41 33 -51 16 -30 33
-30 46 0 15 33 54 74 71 74 46 1 110 156 84 204 -7 11 -16 24 -20 27 -11 8 3
39 18 39 18 0 26 -27 30 -98 4 -62 17 -72 26 -20 3 18 16 53 28 78 29 57 45
113 66 220 27 138 28 158 9 237 -14 60 -15 79 -5 95 10 16 8 24 -13 49 -20 24
-25 39 -22 72 1 23 -3 55 -11 70 -8 15 -12 31 -9 36 3 4 -1 19 -9 34 -7 14
-11 28 -8 31 3 3 -1 25 -9 48 -9 24 -21 64 -27 91 -29 122 -36 147 -67 212
-18 39 -55 96 -81 129 -26 32 -52 66 -58 75 -5 9 -22 35 -37 59 -16 24 -28 47
-28 53 0 5 -4 9 -10 9 -5 0 -10 5 -10 10 0 6 -25 35 -55 65 -38 39 -53 60 -48
72 5 13 2 15 -15 11 -12 -4 -20 -1 -19 4 1 6 -10 14 -25 18 -15 5 -51 31 -80
60 -61 59 -143 104 -208 115 -25 4 -58 13 -74 21 -16 8 -36 14 -46 14 -9 0
-21 5 -27 11 -13 13 -192 65 -258 75 -27 4 -52 10 -55 13 -3 4 -45 14 -95 24
-89 17 -170 19 -254 5z m638 -1522 c26 6 30 4 25 -10 -3 -9 -10 -14 -14 -11
-5 3 -10 0 -12 -6 -5 -16 -43 4 -52 27 -5 13 -4 15 7 5 8 -6 27 -8 46 -5z
m-179 -10 c0 -3 -4 -8 -10 -11 -5 -3 -10 -1 -10 4 0 6 5 11 10 11 6 0 10 -2
10 -4z m95 -6 c3 -5 -3 -10 -14 -10 -11 0 -23 5 -26 10 -3 6 3 10 14 10 11 0
23 -4 26 -10z m-245 -208 c0 -10 5 -23 12 -30 20 -20 -6 -38 -35 -25 -29 13
-34 59 -8 66 29 8 31 7 31 -11z m-955 -109 c3 -16 13 -35 21 -45 9 -9 11 -18
6 -22 -10 -6 -99 7 -107 16 -10 10 9 46 33 61 36 22 39 21 47 -10z"/>
<path d="M2838 2523 c7 -3 16 -2 19 1 4 3 -2 6 -13 5 -11 0 -14 -3 -6 -6z"/>
<path d="M2116 2014 c-3 -9 -4 -20 0 -25 7 -12 54 -11 54 1 0 6 -12 10 -26 10
-22 0 -25 2 -14 15 7 9 8 15 2 15 -5 0 -13 -7 -16 -16z"/>
<path d="M2200 2002 c0 -5 7 -13 16 -16 10 -4 14 -1 12 6 -5 15 -28 23 -28 10z"/>
<path d="M2242 1988 c5 -15 28 -23 28 -10 0 5 -7 13 -16 16 -10 4 -14 1 -12
-6z"/>
<path d="M2010 1951 c0 -5 -11 -12 -24 -15 -26 -6 -39 -36 -25 -57 5 -8 9 -25
9 -37 0 -13 9 -35 20 -49 11 -14 20 -21 20 -16 0 11 88 33 106 26 6 -2 17 -25
24 -51 11 -43 10 -48 -10 -64 -24 -19 -45 -24 -35 -8 3 5 0 7 -9 4 -8 -3 -23
-1 -33 4 -10 6 -40 13 -67 16 -27 3 -52 10 -56 17 -6 9 -15 8 -39 -2 -17 -8
-31 -17 -31 -21 0 -5 -3 -7 -7 -7 -18 3 -32 -2 -45 -14 -7 -7 -25 -18 -41 -24
-15 -7 -27 -16 -26 -20 1 -5 0 -10 -1 -13 -14 -35 -8 -58 17 -71 16 -8 36 -24
47 -37 15 -19 24 -22 50 -16 51 11 80 7 137 -21 56 -27 99 -27 99 0 0 18 41
20 58 3 9 -9 16 -6 32 13 15 17 18 25 9 28 -7 2 -15 -1 -17 -7 -2 -7 -8 -12
-13 -12 -17 0 -9 18 21 47 17 15 30 34 30 40 0 7 5 14 10 14 6 1 15 3 20 4 6
1 22 3 36 4 30 1 23 21 -9 22 -18 1 -16 3 8 10 17 5 38 7 49 5 12 -3 20 2 23
15 4 13 14 19 34 19 22 0 27 4 22 17 -4 11 -3 14 5 9 7 -4 12 -3 12 3 0 5 -5
13 -11 16 -6 4 -8 13 -5 21 4 10 -3 14 -24 14 -17 0 -30 4 -30 10 0 5 8 6 17
3 14 -5 13 -3 -3 14 -10 11 -30 34 -44 51 -16 21 -31 30 -41 27 -10 -3 -20 -1
-24 5 -3 5 1 10 9 10 9 0 16 5 16 10 0 15 -5 13 -53 -20 -49 -33 -57 -35 -57
-20 0 12 -50 59 -63 60 -5 0 -21 8 -35 18 -34 24 -62 34 -62 23z m295 -122
c11 -17 -1 -21 -15 -4 -8 9 -8 15 -2 15 6 0 14 -5 17 -11z"/>
<path d="M2558 1943 c7 -3 16 -2 19 1 4 3 -2 6 -13 5 -11 0 -14 -3 -6 -6z"/>
<path d="M3510 1940 c0 -5 5 -10 10 -10 6 0 10 5 10 10 0 6 -4 10 -10 10 -5 0
-10 -4 -10 -10z"/>
<path d="M2256 1921 c-3 -5 5 -12 19 -15 13 -3 29 -15 35 -26 11 -21 40 -28
40 -10 0 6 -7 10 -16 10 -11 0 -14 6 -9 21 5 15 4 19 -4 15 -6 -4 -11 -2 -11
3 0 13 -47 15 -54 2z"/>
<path d="M3487 1881 c-10 -23 -25 -41 -32 -41 -16 0 -51 -47 -42 -56 19 -19
105 96 95 126 -2 6 -12 -7 -21 -29z"/>
<path d="M3290 1684 c0 -11 8 -14 25 -12 35 4 36 22 3 25 -19 1 -28 -3 -28
-13z"/>
<path d="M1565 1616 c-25 -18 -14 -42 30 -63 33 -16 36 -16 53 1 16 16 15 19
-16 47 -37 33 -41 34 -67 15z"/>
<path d="M3387 1576 c-6 -15 -72 -17 -95 -2 -19 11 -19 9 -27 -64 -4 -36 -11
-85 -17 -110 -5 -25 -11 -57 -13 -72 -1 -16 -4 -31 -5 -35 -1 -5 -2 -11 -1
-15 0 -4 -6 -19 -14 -34 -10 -21 -11 -31 -3 -41 6 -8 8 -16 4 -20 -3 -3 -6 -1
-6 5 0 7 -4 12 -10 12 -13 0 -51 -76 -42 -85 4 -4 0 -5 -8 -4 -8 2 -16 0 -17
-5 -2 -14 -72 -48 -83 -41 -6 3 -10 -1 -10 -9 0 -9 -7 -16 -15 -16 -9 0 -15 9
-15 21 0 26 -25 20 -25 -7 -1 -10 -4 -25 -8 -32 -5 -6 -6 -16 -2 -21 3 -5 -4
-16 -16 -25 -19 -13 -24 -13 -45 1 -23 14 -24 14 -24 -6 0 -28 -36 -29 -43 -1
-3 11 -12 20 -21 20 -14 0 -21 18 -17 43 0 4 -3 7 -7 7 -10 0 -32 -45 -32 -65
0 -8 -7 -15 -15 -15 -8 0 -24 -9 -35 -20 -11 -11 -29 -20 -40 -20 -25 0 -38
-29 -19 -41 11 -7 11 -9 -3 -9 -20 0 -52 -55 -42 -72 5 -7 -2 -9 -20 -6 -24 5
-38 -6 -16 -14 6 -2 -1 -15 -15 -30 -22 -23 -23 -27 -7 -31 15 -4 -32 -11 -65
-10 -7 1 -10 -3 -7 -8 3 -5 -2 -12 -10 -15 -9 -3 -16 -11 -16 -16 0 -15 -40
-48 -59 -50 -31 -2 -36 -4 -61 -18 -34 -18 -89 -30 -96 -19 -2 5 -13 3 -24 -3
-10 -7 -17 -15 -14 -19 2 -5 -5 -13 -17 -20 -20 -10 -21 -9 -17 9 5 16 2 19
-11 14 -9 -3 -25 -14 -35 -24 -11 -10 -28 -18 -38 -18 -20 0 -25 -26 -5 -33 7
-3 5 -6 -5 -6 -10 -1 -18 -8 -18 -16 0 -8 -7 -15 -15 -15 -8 0 -15 -7 -15 -16
0 -8 5 -12 10 -9 6 3 10 -1 10 -9 0 -18 35 -24 79 -13 18 5 42 6 52 4 11 -3
19 -1 19 5 0 5 9 7 19 3 11 -3 22 -1 25 4 4 6 22 4 49 -5 49 -18 137 -20 166
-5 25 14 31 14 31 1 0 -5 -8 -10 -17 -11 -14 0 -15 -2 -3 -6 16 -6 57 -48 63
-66 2 -6 20 2 43 19 178 132 377 296 518 424 149 136 235 226 241 253 6 21 2
34 -13 50 -23 25 -28 45 -17 70 4 10 2 23 -4 31 -8 9 -9 22 -3 37 21 54 32 97
32 123 0 31 23 91 43 111 8 8 18 36 21 62 4 26 9 56 12 66 6 20 -11 23 -19 3z
m-137 -366 c0 -5 -4 -10 -10 -10 -5 0 -10 5 -10 10 0 6 5 10 10 10 6 0 10 -4
10 -10z m-10 -72 c0 -13 5 -18 13 -15 10 4 13 -2 9 -19 -3 -16 -10 -23 -18
-20 -10 4 -14 -2 -14 -19 0 -14 2 -25 4 -25 2 0 11 -3 20 -6 12 -5 16 1 17 22
2 25 2 26 6 6 3 -13 -1 -29 -7 -37 -6 -8 -9 -19 -6 -24 10 -16 -16 -50 -33
-44 -12 5 -13 3 -4 -7 14 -15 -15 -49 -36 -42 -9 4 -13 0 -9 -9 3 -8 -3 -23
-13 -33 -19 -19 -19 -19 -19 2 0 12 5 22 10 22 6 0 10 7 10 15 0 18 -30 20
-31 3 -8 -106 -8 -108 -19 -83 -12 28 -12 37 0 30 6 -3 10 -1 10 4 0 6 -4 11
-9 11 -5 0 -2 15 6 33 21 42 20 42 36 29 10 -8 16 -6 25 9 11 18 10 19 -11 14
-20 -5 -23 -3 -21 17 1 13 3 25 3 28 1 3 8 -4 16 -14 15 -20 15 -20 16 0 1 10
0 30 -1 43 -1 14 2 21 9 17 6 -4 12 -19 12 -34 2 -24 2 -25 6 -4 3 13 -1 29
-7 37 -8 10 -8 19 -1 34 14 26 14 34 -1 25 -8 -5 -9 0 -5 17 4 13 7 29 7 36 0
7 7 10 15 7 8 -4 15 -15 15 -26z m-58 -70 c-7 -7 -12 -8 -12 -2 0 14 12 26 19
19 2 -3 -1 -11 -7 -17z m-367 -107 c3 -5 2 -12 -3 -15 -5 -3 -9 1 -9 9 0 17 3
19 12 6z"/>
<path d="M3230 1013 c0 -13 5 -23 10 -23 13 0 13 11 0 30 -8 12 -10 11 -10 -7z"/>
<path d="M2208 1333 c6 -2 18 -2 25 0 6 3 1 5 -13 5 -14 0 -19 -2 -12 -5z"/>
<path d="M2252 1312 c4 -25 2 -29 -9 -21 -14 12 -34 14 -195 23 -66 3 -109 2
-113 -4 -3 -6 -15 -10 -25 -10 -11 0 -41 -13 -67 -28 -50 -29 -110 -42 -97
-20 5 8 2 9 -10 5 -10 -4 -25 -7 -33 -7 -11 0 -13 -3 -5 -13 7 -8 7 -18 2 -27
-6 -9 -5 -18 3 -23 17 -12 -43 2 -75 18 -19 9 -27 10 -25 2 1 -8 -19 -12 -61
-12 -65 0 -82 -10 -82 -48 0 -17 6 -18 48 -12 38 5 51 3 61 -9 8 -9 26 -16 41
-16 15 0 40 -6 56 -14 34 -17 88 -10 80 10 -6 15 9 28 23 19 6 -3 4 -16 -4
-31 -7 -15 -11 -33 -8 -40 3 -8 0 -14 -6 -14 -6 0 -11 -7 -11 -15 0 -8 7 -15
15 -15 8 0 15 -4 15 -10 0 -5 -7 -7 -15 -4 -10 4 -15 0 -15 -15 0 -12 6 -21
15 -21 8 0 15 -7 15 -15 0 -8 5 -15 10 -15 6 0 9 -5 8 -11 -2 -6 19 -19 45
-30 27 -10 46 -15 42 -10 -10 17 11 20 39 6 14 -8 24 -10 21 -5 -4 6 -2 10 4
10 5 0 13 -5 16 -10 4 -6 14 -8 23 -6 10 3 43 8 75 10 32 3 64 9 70 15 7 5 29
12 50 16 20 4 37 12 37 17 0 6 7 7 16 4 12 -5 15 -2 10 11 -4 10 -4 14 0 11 3
-4 27 4 53 17 25 14 52 25 60 25 10 0 11 3 2 14 -10 11 -8 16 8 21 12 3 21 13
21 20 0 8 12 31 26 52 15 21 24 29 20 18 -5 -16 0 -14 19 8 24 27 34 71 18 79
-12 5 -53 66 -53 78 0 5 -9 10 -19 10 -11 0 -22 4 -25 9 -3 5 -23 11 -43 13
-21 3 -46 8 -57 13 -17 7 -18 5 -14 -23z"/>
<path d="M2980 1241 c0 -6 5 -13 10 -16 6 -3 10 1 10 9 0 9 -4 16 -10 16 -5 0
-10 -4 -10 -9z"/>
<path d="M2650 1220 c0 -5 5 -10 10 -10 6 0 10 5 10 10 0 6 -4 10 -10 10 -5 0
-10 -4 -10 -10z"/>
<path d="M2696 1133 c-6 -15 8 -32 27 -33 12 0 8 20 -7 35 -12 12 -15 12 -20
-2z"/>
<path d="M2965 1133 c4 -14 2 -23 -4 -23 -6 0 -11 -4 -11 -8 0 -5 7 -9 15 -9
17 0 20 25 4 47 -8 12 -9 10 -4 -7z"/>
<path d="M3014 1105 c4 -24 16 -30 16 -7 0 12 -4 22 -9 22 -5 0 -8 -7 -7 -15z"/>
<path d="M2855 1030 c3 -5 13 -10 21 -10 8 0 14 5 14 10 0 6 -9 10 -21 10 -11
0 -17 -4 -14 -10z"/>
<path d="M3417 958 c4 -13 8 -45 8 -73 -1 -60 -58 -182 -185 -400 -45 -77
-106 -181 -136 -231 -44 -76 -124 -236 -124 -250 0 -2 313 -4 695 -4 l695 0 0
113 0 112 -96 55 c-52 30 -134 79 -182 108 -48 30 -115 70 -149 89 -52 28 -63
39 -63 60 0 42 -31 80 -201 248 -181 178 -202 195 -242 195 -25 0 -27 -3 -20
-22z"/>
</g>
</svg>
